<svg height="512" viewBox="0 0 128 128" width="512" xmlns="http://www.w3.org/2000/svg"><g><path d="m10.391 27.554h63.957v53.313h-63.957z" fill="#f9cc4e"/><path d="m117.609 80.867v-21.913l-12.906-23.538h-30.355v45.451z" fill="#f95050"/><path d="m6.306 80.867h115.387v12.193h-115.387z" fill="#f95050"/><circle cx="29.86" cy="86.936" fill="#6d7a84" r="13.51"/><circle cx="98.14" cy="86.936" fill="#6d7a84" r="13.51"/><g fill="#e2e8ed"><path d="m117.61 58.95h-11.8a13.892 13.892 0 0 1 -12.19-7.21l-8.95-16.32h20.03z"/><path d="m109.961 64.371h7.648v6.315h-7.648z"/><circle cx="29.86" cy="86.936" r="5.028"/><circle cx="98.14" cy="86.936" r="5.028"/></g><path d="m53.652 88.843h20.697v8.433h-20.697z" fill="#6d7a84"/><path d="m50.833 51.068h-14.661v6.563h14.661v5.988l9.269-9.27-9.269-9.269z" fill="#4ec4b5"/><g fill="#142850"><path d="m121.693 79.117h-2.334v-20.163a1.777 1.777 0 0 0 -.05-.4c-.009-.035-.022-.068-.032-.1a1.686 1.686 0 0 0 -.11-.279c-.01-.019-.013-.04-.023-.059l-12.907-23.542a1.75 1.75 0 0 0 -1.534-.908h-6.266a1.75 1.75 0 0 0 0 3.5h5.23l10.987 20.034h-8.847a12.142 12.142 0 0 1 -10.651-6.3l-7.529-13.734h3.134a1.75 1.75 0 0 0 0-3.5h-14.661v-6.112a1.75 1.75 0 0 0 -1.75-1.75h-63.959a1.749 1.749 0 0 0 -1.75 1.75v26.273a1.75 1.75 0 0 0 3.5 0v-24.527h60.459v49.817h-29.661a15.217 15.217 0 0 0 -26.159 0h-4.639v-3.9a1.75 1.75 0 0 0 -3.5 0v3.9h-2.334a1.749 1.749 0 0 0 -1.75 1.75v12.193a1.75 1.75 0 0 0 1.75 1.75h10.505a15.216 15.216 0 0 0 26.094 0h9v2.466a1.75 1.75 0 0 0 1.75 1.75h20.7a1.75 1.75 0 0 0 1.75-1.75v-2.466h8.995a15.216 15.216 0 0 0 26.094 0h10.5a1.75 1.75 0 0 0 1.75-1.75v-12.193a1.749 1.749 0 0 0 -1.752-1.75zm-5.834-10.18h-4.148v-2.816h4.148zm-39.759-31.771h7.537l8.452 15.415a15.641 15.641 0 0 0 13.718 8.119h10.052v1.917h-5.9a1.749 1.749 0 0 0 -1.75 1.75v6.316a1.75 1.75 0 0 0 1.75 1.75h5.9v6.68h-4.639a15.217 15.217 0 0 0 -26.159 0h-8.961zm-68.043 54.144v-8.693h7.175a15.1 15.1 0 0 0 .014 8.693zm21.8 7.386a11.76 11.76 0 1 1 11.76-11.759 11.772 11.772 0 0 1 -11.758 11.763zm42.74-3.17h-17.197v-4.932h17.2zm3.5-4.216v-2.466a1.75 1.75 0 0 0 -1.75-1.75h-20.7a1.75 1.75 0 0 0 -1.75 1.75v2.466h-7.424a15.1 15.1 0 0 0 .014-8.693h39.026a15.1 15.1 0 0 0 .014 8.693zm22.044 7.39a11.76 11.76 0 1 1 11.759-11.763 11.772 11.772 0 0 1 -11.759 11.763zm21.8-7.386h-7.189a15.1 15.1 0 0 0 .014-8.693h7.175z"/><path d="m29.859 80.158a6.779 6.779 0 1 0 6.779 6.779 6.786 6.786 0 0 0 -6.779-6.779zm0 10.057a3.279 3.279 0 1 1 3.279-3.278 3.282 3.282 0 0 1 -3.279 3.278z"/><path d="m98.141 80.158a6.779 6.779 0 1 0 6.778 6.779 6.787 6.787 0 0 0 -6.778-6.779zm0 10.057a3.279 3.279 0 1 1 3.278-3.278 3.283 3.283 0 0 1 -3.278 3.278z"/><path d="m10.391 68.732a1.75 1.75 0 0 0 1.75-1.75v-4.5a1.75 1.75 0 0 0 -3.5 0v4.5a1.749 1.749 0 0 0 1.75 1.75z"/><path d="m93.112 66.121h5.029a1.75 1.75 0 1 0 0-3.5h-5.029a1.75 1.75 0 0 0 0 3.5z"/><path d="m50.163 65.235a1.75 1.75 0 0 0 1.907-.38l9.269-9.268a1.751 1.751 0 0 0 0-2.475l-9.269-9.269a1.749 1.749 0 0 0 -2.987 1.237v4.237h-12.911a1.75 1.75 0 0 0 -1.75 1.75v6.564a1.749 1.749 0 0 0 1.75 1.75h12.911v4.237a1.751 1.751 0 0 0 1.08 1.617zm-12.241-9.354v-3.064h12.911a1.749 1.749 0 0 0 1.75-1.75v-1.761l5.044 5.044-5.044 5.044v-1.763a1.749 1.749 0 0 0 -1.75-1.75z"/><path d="m32.155 57.631v-6.564a1.75 1.75 0 0 0 -3.5 0v6.564a1.75 1.75 0 0 0 3.5 0z"/><path d="m26.388 57.631v-6.564a1.75 1.75 0 0 0 -3.5 0v6.564a1.75 1.75 0 0 0 3.5 0z"/></g></g></svg>